Coordinates
version=1
nRows=32
nColumns=12
inDegrees=yes

Units are S.I. units (second, meters, Newtons, ...)
Angles are in degrees

endheader
time	SC_y	SC_z	SC_x	AC_y	AC_z	AC_x	GH_y	GH_z	GH_yy	EL_x	PS_y
       0.0              -11.54          38.98          67.66           45.2          1.065          17.94         -23.16           40.1          3.606          45.56          92.46
  0.001236              -11.55          38.97          67.66           45.2          1.065          17.94         -23.18          40.09          3.619          45.56          92.47
  0.002472              -11.55          38.97          67.66           45.2          1.065          17.94         -23.19          40.09          3.633          45.56          92.48
  0.003708              -11.56          38.96          67.67           45.2          1.065          17.94         -23.21          40.08          3.648          45.56          92.49
  0.004944              -11.57          38.96          67.67           45.2          1.066          17.94         -23.23          40.07          3.664          45.56          92.49
   0.00618              -11.58          38.95          67.67           45.2          1.066          17.94         -23.25          40.07          3.681          45.56           92.5
  0.007417              -11.58          38.95          67.67          45.21          1.066          17.94         -23.27          40.06          3.699          45.55          92.51
  0.008653              -11.59          38.94          67.68          45.21          1.067          17.94         -23.29          40.05          3.719          45.55          92.52
  0.009889               -11.6          38.94          67.68          45.21          1.067          17.94         -23.31          40.04          3.739          45.55          92.53
   0.01112              -11.61          38.93          67.69          45.21          1.067          17.94         -23.34          40.03          3.762          45.55          92.55
   0.01236              -11.62          38.92          67.69          45.22          1.068          17.94         -23.36          40.02          3.785          45.55          92.56
    0.0136              -11.63          38.92          67.69          45.22          1.068          17.94         -23.39          40.01          3.811          45.54          92.57
   0.01483              -11.65          38.91           67.7          45.22          1.069          17.94         -23.42           40.0          3.839          45.54          92.59
   0.01607              -11.66           38.9           67.7          45.23          1.069          17.94         -23.45          39.98          3.869          45.54          92.61
   0.01731              -11.67          38.89          67.71          45.23           1.07          17.94         -23.49          39.97          3.901          45.54          92.62
   0.01854              -11.69          38.88          67.72          45.24           1.07          17.94         -23.53          39.95          3.936          45.53          92.64
   0.01978              -11.71          38.87          67.72          45.24          1.071          17.94         -23.57          39.94          3.975          45.53          92.66
   0.02101              -11.73          38.86          67.73          45.25          1.072          17.94         -23.61          39.92          4.016          45.53          92.69
   0.02225              -11.75          38.84          67.74          45.25          1.073          17.94         -23.66           39.9          4.062          45.52          92.71
   0.02349              -11.77          38.83          67.75          45.26          1.073          17.94         -23.72          39.88          4.111          45.52          92.74
   0.02472              -11.79          38.81          67.76          45.26          1.074          17.94         -23.78          39.85          4.166          45.51          92.77
   0.02596              -11.82           38.8          67.77          45.27          1.075          17.94         -23.85          39.83          4.226          45.51           92.8
   0.02719              -11.85          38.78          67.78          45.28          1.077          17.94         -23.92           39.8          4.292           45.5          92.84
   0.02843              -11.88          38.75          67.79          45.29          1.078          17.93          -24.0          39.77          4.366           45.5          92.88
   0.02967              -11.92          38.73          67.81           45.3          1.079          17.93         -24.09          39.73          4.448          45.49          92.92
    0.0309              -11.96           38.7          67.82          45.31          1.081          17.93         -24.19          39.69          4.539          45.48          92.97
   0.03214              -12.01          38.67          67.84          45.32          1.083          17.93          -24.3          39.65          4.641          45.47          93.03
   0.03337              -12.06          38.64          67.86          45.34          1.085          17.93         -24.43           39.6          4.756          45.46          93.09
   0.03461              -12.12           38.6          67.88          45.35          1.087          17.93         -24.57          39.54          4.886          45.45          93.16
   0.03585              -12.18          38.56          67.91          45.37           1.09          17.93         -24.73          39.48          5.034          45.44          93.24
   0.03708              -12.26          38.51          67.94          45.39          1.093          17.93         -24.92           39.4          5.202          45.43          93.34
   0.03832              -12.34          38.46          67.97          45.41          1.096          17.92         -25.13          39.32          5.396          45.41          93.44
